%TF.GenerationSoftware,KiCad,Pcbnew,10.0.1*%
%TF.CreationDate,2026-08-08T20:04:43+02:00*%
%TF.ProjectId,CaynsLEDGateway,4361796e-734c-4454-9447-617465776179,rev?*%
%TF.SameCoordinates,Original*%
%TF.FileFunction,Legend,Top*%
%TF.FilePolarity,Positive*%
%FSLAX46Y46*%
G04 Gerber Fmt 4.6, Leading zero omitted, Abs format (unit mm)*
G04 Created by KiCad (PCBNEW 10.0.1) date 2026-08-08 20:04:43*
%MOMM*%
%LPD*%
G01*
G04 APERTURE LIST*
%ADD10C,0.150000*%
%ADD11C,0.120000*%
%ADD12C,0.127000*%
%ADD13C,0.152400*%
G04 APERTURE END LIST*
D10*
X87333333Y-64454819D02*
X87000000Y-63978628D01*
X86761905Y-64454819D02*
X86761905Y-63454819D01*
X86761905Y-63454819D02*
X87142857Y-63454819D01*
X87142857Y-63454819D02*
X87238095Y-63502438D01*
X87238095Y-63502438D02*
X87285714Y-63550057D01*
X87285714Y-63550057D02*
X87333333Y-63645295D01*
X87333333Y-63645295D02*
X87333333Y-63788152D01*
X87333333Y-63788152D02*
X87285714Y-63883390D01*
X87285714Y-63883390D02*
X87238095Y-63931009D01*
X87238095Y-63931009D02*
X87142857Y-63978628D01*
X87142857Y-63978628D02*
X86761905Y-63978628D01*
X87904762Y-63883390D02*
X87809524Y-63835771D01*
X87809524Y-63835771D02*
X87761905Y-63788152D01*
X87761905Y-63788152D02*
X87714286Y-63692914D01*
X87714286Y-63692914D02*
X87714286Y-63645295D01*
X87714286Y-63645295D02*
X87761905Y-63550057D01*
X87761905Y-63550057D02*
X87809524Y-63502438D01*
X87809524Y-63502438D02*
X87904762Y-63454819D01*
X87904762Y-63454819D02*
X88095238Y-63454819D01*
X88095238Y-63454819D02*
X88190476Y-63502438D01*
X88190476Y-63502438D02*
X88238095Y-63550057D01*
X88238095Y-63550057D02*
X88285714Y-63645295D01*
X88285714Y-63645295D02*
X88285714Y-63692914D01*
X88285714Y-63692914D02*
X88238095Y-63788152D01*
X88238095Y-63788152D02*
X88190476Y-63835771D01*
X88190476Y-63835771D02*
X88095238Y-63883390D01*
X88095238Y-63883390D02*
X87904762Y-63883390D01*
X87904762Y-63883390D02*
X87809524Y-63931009D01*
X87809524Y-63931009D02*
X87761905Y-63978628D01*
X87761905Y-63978628D02*
X87714286Y-64073866D01*
X87714286Y-64073866D02*
X87714286Y-64264342D01*
X87714286Y-64264342D02*
X87761905Y-64359580D01*
X87761905Y-64359580D02*
X87809524Y-64407200D01*
X87809524Y-64407200D02*
X87904762Y-64454819D01*
X87904762Y-64454819D02*
X88095238Y-64454819D01*
X88095238Y-64454819D02*
X88190476Y-64407200D01*
X88190476Y-64407200D02*
X88238095Y-64359580D01*
X88238095Y-64359580D02*
X88285714Y-64264342D01*
X88285714Y-64264342D02*
X88285714Y-64073866D01*
X88285714Y-64073866D02*
X88238095Y-63978628D01*
X88238095Y-63978628D02*
X88190476Y-63931009D01*
X88190476Y-63931009D02*
X88095238Y-63883390D01*
X101452319Y-53063333D02*
X102166604Y-53063333D01*
X102166604Y-53063333D02*
X102309461Y-53110952D01*
X102309461Y-53110952D02*
X102404700Y-53206190D01*
X102404700Y-53206190D02*
X102452319Y-53349047D01*
X102452319Y-53349047D02*
X102452319Y-53444285D01*
X102452319Y-52063333D02*
X102452319Y-52634761D01*
X102452319Y-52349047D02*
X101452319Y-52349047D01*
X101452319Y-52349047D02*
X101595176Y-52444285D01*
X101595176Y-52444285D02*
X101690414Y-52539523D01*
X101690414Y-52539523D02*
X101738033Y-52634761D01*
X77359580Y-64166666D02*
X77407200Y-64214285D01*
X77407200Y-64214285D02*
X77454819Y-64357142D01*
X77454819Y-64357142D02*
X77454819Y-64452380D01*
X77454819Y-64452380D02*
X77407200Y-64595237D01*
X77407200Y-64595237D02*
X77311961Y-64690475D01*
X77311961Y-64690475D02*
X77216723Y-64738094D01*
X77216723Y-64738094D02*
X77026247Y-64785713D01*
X77026247Y-64785713D02*
X76883390Y-64785713D01*
X76883390Y-64785713D02*
X76692914Y-64738094D01*
X76692914Y-64738094D02*
X76597676Y-64690475D01*
X76597676Y-64690475D02*
X76502438Y-64595237D01*
X76502438Y-64595237D02*
X76454819Y-64452380D01*
X76454819Y-64452380D02*
X76454819Y-64357142D01*
X76454819Y-64357142D02*
X76502438Y-64214285D01*
X76502438Y-64214285D02*
X76550057Y-64166666D01*
X76454819Y-63833332D02*
X76454819Y-63214285D01*
X76454819Y-63214285D02*
X76835771Y-63547618D01*
X76835771Y-63547618D02*
X76835771Y-63404761D01*
X76835771Y-63404761D02*
X76883390Y-63309523D01*
X76883390Y-63309523D02*
X76931009Y-63261904D01*
X76931009Y-63261904D02*
X77026247Y-63214285D01*
X77026247Y-63214285D02*
X77264342Y-63214285D01*
X77264342Y-63214285D02*
X77359580Y-63261904D01*
X77359580Y-63261904D02*
X77407200Y-63309523D01*
X77407200Y-63309523D02*
X77454819Y-63404761D01*
X77454819Y-63404761D02*
X77454819Y-63690475D01*
X77454819Y-63690475D02*
X77407200Y-63785713D01*
X77407200Y-63785713D02*
X77359580Y-63833332D01*
X67429580Y-63841666D02*
X67477200Y-63889285D01*
X67477200Y-63889285D02*
X67524819Y-64032142D01*
X67524819Y-64032142D02*
X67524819Y-64127380D01*
X67524819Y-64127380D02*
X67477200Y-64270237D01*
X67477200Y-64270237D02*
X67381961Y-64365475D01*
X67381961Y-64365475D02*
X67286723Y-64413094D01*
X67286723Y-64413094D02*
X67096247Y-64460713D01*
X67096247Y-64460713D02*
X66953390Y-64460713D01*
X66953390Y-64460713D02*
X66762914Y-64413094D01*
X66762914Y-64413094D02*
X66667676Y-64365475D01*
X66667676Y-64365475D02*
X66572438Y-64270237D01*
X66572438Y-64270237D02*
X66524819Y-64127380D01*
X66524819Y-64127380D02*
X66524819Y-64032142D01*
X66524819Y-64032142D02*
X66572438Y-63889285D01*
X66572438Y-63889285D02*
X66620057Y-63841666D01*
X66524819Y-62936904D02*
X66524819Y-63413094D01*
X66524819Y-63413094D02*
X67001009Y-63460713D01*
X67001009Y-63460713D02*
X66953390Y-63413094D01*
X66953390Y-63413094D02*
X66905771Y-63317856D01*
X66905771Y-63317856D02*
X66905771Y-63079761D01*
X66905771Y-63079761D02*
X66953390Y-62984523D01*
X66953390Y-62984523D02*
X67001009Y-62936904D01*
X67001009Y-62936904D02*
X67096247Y-62889285D01*
X67096247Y-62889285D02*
X67334342Y-62889285D01*
X67334342Y-62889285D02*
X67429580Y-62936904D01*
X67429580Y-62936904D02*
X67477200Y-62984523D01*
X67477200Y-62984523D02*
X67524819Y-63079761D01*
X67524819Y-63079761D02*
X67524819Y-63317856D01*
X67524819Y-63317856D02*
X67477200Y-63413094D01*
X67477200Y-63413094D02*
X67429580Y-63460713D01*
X90523810Y-72954819D02*
X90523810Y-71954819D01*
X91571428Y-72859580D02*
X91523809Y-72907200D01*
X91523809Y-72907200D02*
X91380952Y-72954819D01*
X91380952Y-72954819D02*
X91285714Y-72954819D01*
X91285714Y-72954819D02*
X91142857Y-72907200D01*
X91142857Y-72907200D02*
X91047619Y-72811961D01*
X91047619Y-72811961D02*
X91000000Y-72716723D01*
X91000000Y-72716723D02*
X90952381Y-72526247D01*
X90952381Y-72526247D02*
X90952381Y-72383390D01*
X90952381Y-72383390D02*
X91000000Y-72192914D01*
X91000000Y-72192914D02*
X91047619Y-72097676D01*
X91047619Y-72097676D02*
X91142857Y-72002438D01*
X91142857Y-72002438D02*
X91285714Y-71954819D01*
X91285714Y-71954819D02*
X91380952Y-71954819D01*
X91380952Y-71954819D02*
X91523809Y-72002438D01*
X91523809Y-72002438D02*
X91571428Y-72050057D01*
X91904762Y-71954819D02*
X92523809Y-71954819D01*
X92523809Y-71954819D02*
X92190476Y-72335771D01*
X92190476Y-72335771D02*
X92333333Y-72335771D01*
X92333333Y-72335771D02*
X92428571Y-72383390D01*
X92428571Y-72383390D02*
X92476190Y-72431009D01*
X92476190Y-72431009D02*
X92523809Y-72526247D01*
X92523809Y-72526247D02*
X92523809Y-72764342D01*
X92523809Y-72764342D02*
X92476190Y-72859580D01*
X92476190Y-72859580D02*
X92428571Y-72907200D01*
X92428571Y-72907200D02*
X92333333Y-72954819D01*
X92333333Y-72954819D02*
X92047619Y-72954819D01*
X92047619Y-72954819D02*
X91952381Y-72907200D01*
X91952381Y-72907200D02*
X91904762Y-72859580D01*
X78738095Y-77454819D02*
X78261905Y-77454819D01*
X78261905Y-77454819D02*
X78214286Y-77931009D01*
X78214286Y-77931009D02*
X78261905Y-77883390D01*
X78261905Y-77883390D02*
X78357143Y-77835771D01*
X78357143Y-77835771D02*
X78595238Y-77835771D01*
X78595238Y-77835771D02*
X78690476Y-77883390D01*
X78690476Y-77883390D02*
X78738095Y-77931009D01*
X78738095Y-77931009D02*
X78785714Y-78026247D01*
X78785714Y-78026247D02*
X78785714Y-78264342D01*
X78785714Y-78264342D02*
X78738095Y-78359580D01*
X78738095Y-78359580D02*
X78690476Y-78407200D01*
X78690476Y-78407200D02*
X78595238Y-78454819D01*
X78595238Y-78454819D02*
X78357143Y-78454819D01*
X78357143Y-78454819D02*
X78261905Y-78407200D01*
X78261905Y-78407200D02*
X78214286Y-78359580D01*
X79285714Y-68954819D02*
X78714286Y-68954819D01*
X79000000Y-68954819D02*
X79000000Y-67954819D01*
X79000000Y-67954819D02*
X78904762Y-68097676D01*
X78904762Y-68097676D02*
X78809524Y-68192914D01*
X78809524Y-68192914D02*
X78714286Y-68240533D01*
X83238095Y-74454819D02*
X83809523Y-74454819D01*
X83523809Y-75454819D02*
X83523809Y-74454819D01*
X84047619Y-74454819D02*
X84714285Y-75454819D01*
X84714285Y-74454819D02*
X84047619Y-75454819D01*
X85095238Y-75454819D02*
X85095238Y-74454819D01*
X85095238Y-74454819D02*
X85333333Y-74454819D01*
X85333333Y-74454819D02*
X85476190Y-74502438D01*
X85476190Y-74502438D02*
X85571428Y-74597676D01*
X85571428Y-74597676D02*
X85619047Y-74692914D01*
X85619047Y-74692914D02*
X85666666Y-74883390D01*
X85666666Y-74883390D02*
X85666666Y-75026247D01*
X85666666Y-75026247D02*
X85619047Y-75216723D01*
X85619047Y-75216723D02*
X85571428Y-75311961D01*
X85571428Y-75311961D02*
X85476190Y-75407200D01*
X85476190Y-75407200D02*
X85333333Y-75454819D01*
X85333333Y-75454819D02*
X85095238Y-75454819D01*
X83380952Y-77907200D02*
X83523809Y-77954819D01*
X83523809Y-77954819D02*
X83761904Y-77954819D01*
X83761904Y-77954819D02*
X83857142Y-77907200D01*
X83857142Y-77907200D02*
X83904761Y-77859580D01*
X83904761Y-77859580D02*
X83952380Y-77764342D01*
X83952380Y-77764342D02*
X83952380Y-77669104D01*
X83952380Y-77669104D02*
X83904761Y-77573866D01*
X83904761Y-77573866D02*
X83857142Y-77526247D01*
X83857142Y-77526247D02*
X83761904Y-77478628D01*
X83761904Y-77478628D02*
X83571428Y-77431009D01*
X83571428Y-77431009D02*
X83476190Y-77383390D01*
X83476190Y-77383390D02*
X83428571Y-77335771D01*
X83428571Y-77335771D02*
X83380952Y-77240533D01*
X83380952Y-77240533D02*
X83380952Y-77145295D01*
X83380952Y-77145295D02*
X83428571Y-77050057D01*
X83428571Y-77050057D02*
X83476190Y-77002438D01*
X83476190Y-77002438D02*
X83571428Y-76954819D01*
X83571428Y-76954819D02*
X83809523Y-76954819D01*
X83809523Y-76954819D02*
X83952380Y-77002438D01*
X84380952Y-77431009D02*
X84714285Y-77431009D01*
X84857142Y-77954819D02*
X84380952Y-77954819D01*
X84380952Y-77954819D02*
X84380952Y-76954819D01*
X84380952Y-76954819D02*
X84857142Y-76954819D01*
X85142857Y-76954819D02*
X85714285Y-76954819D01*
X85428571Y-77954819D02*
X85428571Y-76954819D01*
X83666667Y-66954819D02*
X84000000Y-67954819D01*
X84000000Y-67954819D02*
X84333333Y-66954819D01*
X85238095Y-67859580D02*
X85190476Y-67907200D01*
X85190476Y-67907200D02*
X85047619Y-67954819D01*
X85047619Y-67954819D02*
X84952381Y-67954819D01*
X84952381Y-67954819D02*
X84809524Y-67907200D01*
X84809524Y-67907200D02*
X84714286Y-67811961D01*
X84714286Y-67811961D02*
X84666667Y-67716723D01*
X84666667Y-67716723D02*
X84619048Y-67526247D01*
X84619048Y-67526247D02*
X84619048Y-67383390D01*
X84619048Y-67383390D02*
X84666667Y-67192914D01*
X84666667Y-67192914D02*
X84714286Y-67097676D01*
X84714286Y-67097676D02*
X84809524Y-67002438D01*
X84809524Y-67002438D02*
X84952381Y-66954819D01*
X84952381Y-66954819D02*
X85047619Y-66954819D01*
X85047619Y-66954819D02*
X85190476Y-67002438D01*
X85190476Y-67002438D02*
X85238095Y-67050057D01*
X86238095Y-67859580D02*
X86190476Y-67907200D01*
X86190476Y-67907200D02*
X86047619Y-67954819D01*
X86047619Y-67954819D02*
X85952381Y-67954819D01*
X85952381Y-67954819D02*
X85809524Y-67907200D01*
X85809524Y-67907200D02*
X85714286Y-67811961D01*
X85714286Y-67811961D02*
X85666667Y-67716723D01*
X85666667Y-67716723D02*
X85619048Y-67526247D01*
X85619048Y-67526247D02*
X85619048Y-67383390D01*
X85619048Y-67383390D02*
X85666667Y-67192914D01*
X85666667Y-67192914D02*
X85714286Y-67097676D01*
X85714286Y-67097676D02*
X85809524Y-67002438D01*
X85809524Y-67002438D02*
X85952381Y-66954819D01*
X85952381Y-66954819D02*
X86047619Y-66954819D01*
X86047619Y-66954819D02*
X86190476Y-67002438D01*
X86190476Y-67002438D02*
X86238095Y-67050057D01*
X84238095Y-69502438D02*
X84142857Y-69454819D01*
X84142857Y-69454819D02*
X84000000Y-69454819D01*
X84000000Y-69454819D02*
X83857143Y-69502438D01*
X83857143Y-69502438D02*
X83761905Y-69597676D01*
X83761905Y-69597676D02*
X83714286Y-69692914D01*
X83714286Y-69692914D02*
X83666667Y-69883390D01*
X83666667Y-69883390D02*
X83666667Y-70026247D01*
X83666667Y-70026247D02*
X83714286Y-70216723D01*
X83714286Y-70216723D02*
X83761905Y-70311961D01*
X83761905Y-70311961D02*
X83857143Y-70407200D01*
X83857143Y-70407200D02*
X84000000Y-70454819D01*
X84000000Y-70454819D02*
X84095238Y-70454819D01*
X84095238Y-70454819D02*
X84238095Y-70407200D01*
X84238095Y-70407200D02*
X84285714Y-70359580D01*
X84285714Y-70359580D02*
X84285714Y-70026247D01*
X84285714Y-70026247D02*
X84095238Y-70026247D01*
X84714286Y-70454819D02*
X84714286Y-69454819D01*
X84714286Y-69454819D02*
X85285714Y-70454819D01*
X85285714Y-70454819D02*
X85285714Y-69454819D01*
X85761905Y-70454819D02*
X85761905Y-69454819D01*
X85761905Y-69454819D02*
X86000000Y-69454819D01*
X86000000Y-69454819D02*
X86142857Y-69502438D01*
X86142857Y-69502438D02*
X86238095Y-69597676D01*
X86238095Y-69597676D02*
X86285714Y-69692914D01*
X86285714Y-69692914D02*
X86333333Y-69883390D01*
X86333333Y-69883390D02*
X86333333Y-70026247D01*
X86333333Y-70026247D02*
X86285714Y-70216723D01*
X86285714Y-70216723D02*
X86238095Y-70311961D01*
X86238095Y-70311961D02*
X86142857Y-70407200D01*
X86142857Y-70407200D02*
X86000000Y-70454819D01*
X86000000Y-70454819D02*
X85761905Y-70454819D01*
X84333333Y-72954819D02*
X84000000Y-72478628D01*
X83761905Y-72954819D02*
X83761905Y-71954819D01*
X83761905Y-71954819D02*
X84142857Y-71954819D01*
X84142857Y-71954819D02*
X84238095Y-72002438D01*
X84238095Y-72002438D02*
X84285714Y-72050057D01*
X84285714Y-72050057D02*
X84333333Y-72145295D01*
X84333333Y-72145295D02*
X84333333Y-72288152D01*
X84333333Y-72288152D02*
X84285714Y-72383390D01*
X84285714Y-72383390D02*
X84238095Y-72431009D01*
X84238095Y-72431009D02*
X84142857Y-72478628D01*
X84142857Y-72478628D02*
X83761905Y-72478628D01*
X84666667Y-71954819D02*
X85333333Y-72954819D01*
X85333333Y-71954819D02*
X84666667Y-72954819D01*
X85714286Y-72954819D02*
X85714286Y-71954819D01*
X85714286Y-71954819D02*
X85952381Y-71954819D01*
X85952381Y-71954819D02*
X86095238Y-72002438D01*
X86095238Y-72002438D02*
X86190476Y-72097676D01*
X86190476Y-72097676D02*
X86238095Y-72192914D01*
X86238095Y-72192914D02*
X86285714Y-72383390D01*
X86285714Y-72383390D02*
X86285714Y-72526247D01*
X86285714Y-72526247D02*
X86238095Y-72716723D01*
X86238095Y-72716723D02*
X86190476Y-72811961D01*
X86190476Y-72811961D02*
X86095238Y-72907200D01*
X86095238Y-72907200D02*
X85952381Y-72954819D01*
X85952381Y-72954819D02*
X85714286Y-72954819D01*
X82023810Y-54104819D02*
X82023810Y-53104819D01*
X83071428Y-54009580D02*
X83023809Y-54057200D01*
X83023809Y-54057200D02*
X82880952Y-54104819D01*
X82880952Y-54104819D02*
X82785714Y-54104819D01*
X82785714Y-54104819D02*
X82642857Y-54057200D01*
X82642857Y-54057200D02*
X82547619Y-53961961D01*
X82547619Y-53961961D02*
X82500000Y-53866723D01*
X82500000Y-53866723D02*
X82452381Y-53676247D01*
X82452381Y-53676247D02*
X82452381Y-53533390D01*
X82452381Y-53533390D02*
X82500000Y-53342914D01*
X82500000Y-53342914D02*
X82547619Y-53247676D01*
X82547619Y-53247676D02*
X82642857Y-53152438D01*
X82642857Y-53152438D02*
X82785714Y-53104819D01*
X82785714Y-53104819D02*
X82880952Y-53104819D01*
X82880952Y-53104819D02*
X83023809Y-53152438D01*
X83023809Y-53152438D02*
X83071428Y-53200057D01*
X83452381Y-53200057D02*
X83500000Y-53152438D01*
X83500000Y-53152438D02*
X83595238Y-53104819D01*
X83595238Y-53104819D02*
X83833333Y-53104819D01*
X83833333Y-53104819D02*
X83928571Y-53152438D01*
X83928571Y-53152438D02*
X83976190Y-53200057D01*
X83976190Y-53200057D02*
X84023809Y-53295295D01*
X84023809Y-53295295D02*
X84023809Y-53390533D01*
X84023809Y-53390533D02*
X83976190Y-53533390D01*
X83976190Y-53533390D02*
X83404762Y-54104819D01*
X83404762Y-54104819D02*
X84023809Y-54104819D01*
X77884819Y-70666666D02*
X77408628Y-70999999D01*
X77884819Y-71238094D02*
X76884819Y-71238094D01*
X76884819Y-71238094D02*
X76884819Y-70857142D01*
X76884819Y-70857142D02*
X76932438Y-70761904D01*
X76932438Y-70761904D02*
X76980057Y-70714285D01*
X76980057Y-70714285D02*
X77075295Y-70666666D01*
X77075295Y-70666666D02*
X77218152Y-70666666D01*
X77218152Y-70666666D02*
X77313390Y-70714285D01*
X77313390Y-70714285D02*
X77361009Y-70761904D01*
X77361009Y-70761904D02*
X77408628Y-70857142D01*
X77408628Y-70857142D02*
X77408628Y-71238094D01*
X77884819Y-69714285D02*
X77884819Y-70285713D01*
X77884819Y-69999999D02*
X76884819Y-69999999D01*
X76884819Y-69999999D02*
X77027676Y-70095237D01*
X77027676Y-70095237D02*
X77122914Y-70190475D01*
X77122914Y-70190475D02*
X77170533Y-70285713D01*
X77884819Y-74666666D02*
X77408628Y-74999999D01*
X77884819Y-75238094D02*
X76884819Y-75238094D01*
X76884819Y-75238094D02*
X76884819Y-74857142D01*
X76884819Y-74857142D02*
X76932438Y-74761904D01*
X76932438Y-74761904D02*
X76980057Y-74714285D01*
X76980057Y-74714285D02*
X77075295Y-74666666D01*
X77075295Y-74666666D02*
X77218152Y-74666666D01*
X77218152Y-74666666D02*
X77313390Y-74714285D01*
X77313390Y-74714285D02*
X77361009Y-74761904D01*
X77361009Y-74761904D02*
X77408628Y-74857142D01*
X77408628Y-74857142D02*
X77408628Y-75238094D01*
X76980057Y-74285713D02*
X76932438Y-74238094D01*
X76932438Y-74238094D02*
X76884819Y-74142856D01*
X76884819Y-74142856D02*
X76884819Y-73904761D01*
X76884819Y-73904761D02*
X76932438Y-73809523D01*
X76932438Y-73809523D02*
X76980057Y-73761904D01*
X76980057Y-73761904D02*
X77075295Y-73714285D01*
X77075295Y-73714285D02*
X77170533Y-73714285D01*
X77170533Y-73714285D02*
X77313390Y-73761904D01*
X77313390Y-73761904D02*
X77884819Y-74333332D01*
X77884819Y-74333332D02*
X77884819Y-73714285D01*
X73454819Y-45856666D02*
X72978628Y-46189999D01*
X73454819Y-46428094D02*
X72454819Y-46428094D01*
X72454819Y-46428094D02*
X72454819Y-46047142D01*
X72454819Y-46047142D02*
X72502438Y-45951904D01*
X72502438Y-45951904D02*
X72550057Y-45904285D01*
X72550057Y-45904285D02*
X72645295Y-45856666D01*
X72645295Y-45856666D02*
X72788152Y-45856666D01*
X72788152Y-45856666D02*
X72883390Y-45904285D01*
X72883390Y-45904285D02*
X72931009Y-45951904D01*
X72931009Y-45951904D02*
X72978628Y-46047142D01*
X72978628Y-46047142D02*
X72978628Y-46428094D01*
X72454819Y-44951904D02*
X72454819Y-45428094D01*
X72454819Y-45428094D02*
X72931009Y-45475713D01*
X72931009Y-45475713D02*
X72883390Y-45428094D01*
X72883390Y-45428094D02*
X72835771Y-45332856D01*
X72835771Y-45332856D02*
X72835771Y-45094761D01*
X72835771Y-45094761D02*
X72883390Y-44999523D01*
X72883390Y-44999523D02*
X72931009Y-44951904D01*
X72931009Y-44951904D02*
X73026247Y-44904285D01*
X73026247Y-44904285D02*
X73264342Y-44904285D01*
X73264342Y-44904285D02*
X73359580Y-44951904D01*
X73359580Y-44951904D02*
X73407200Y-44999523D01*
X73407200Y-44999523D02*
X73454819Y-45094761D01*
X73454819Y-45094761D02*
X73454819Y-45332856D01*
X73454819Y-45332856D02*
X73407200Y-45428094D01*
X73407200Y-45428094D02*
X73359580Y-45475713D01*
X100666666Y-49256009D02*
X100333333Y-49256009D01*
X100333333Y-49779819D02*
X100333333Y-48779819D01*
X100333333Y-48779819D02*
X100809523Y-48779819D01*
X101714285Y-49779819D02*
X101142857Y-49779819D01*
X101428571Y-49779819D02*
X101428571Y-48779819D01*
X101428571Y-48779819D02*
X101333333Y-48922676D01*
X101333333Y-48922676D02*
X101238095Y-49017914D01*
X101238095Y-49017914D02*
X101142857Y-49065533D01*
X73454819Y-44166666D02*
X72978628Y-44499999D01*
X73454819Y-44738094D02*
X72454819Y-44738094D01*
X72454819Y-44738094D02*
X72454819Y-44357142D01*
X72454819Y-44357142D02*
X72502438Y-44261904D01*
X72502438Y-44261904D02*
X72550057Y-44214285D01*
X72550057Y-44214285D02*
X72645295Y-44166666D01*
X72645295Y-44166666D02*
X72788152Y-44166666D01*
X72788152Y-44166666D02*
X72883390Y-44214285D01*
X72883390Y-44214285D02*
X72931009Y-44261904D01*
X72931009Y-44261904D02*
X72978628Y-44357142D01*
X72978628Y-44357142D02*
X72978628Y-44738094D01*
X72454819Y-43309523D02*
X72454819Y-43499999D01*
X72454819Y-43499999D02*
X72502438Y-43595237D01*
X72502438Y-43595237D02*
X72550057Y-43642856D01*
X72550057Y-43642856D02*
X72692914Y-43738094D01*
X72692914Y-43738094D02*
X72883390Y-43785713D01*
X72883390Y-43785713D02*
X73264342Y-43785713D01*
X73264342Y-43785713D02*
X73359580Y-43738094D01*
X73359580Y-43738094D02*
X73407200Y-43690475D01*
X73407200Y-43690475D02*
X73454819Y-43595237D01*
X73454819Y-43595237D02*
X73454819Y-43404761D01*
X73454819Y-43404761D02*
X73407200Y-43309523D01*
X73407200Y-43309523D02*
X73359580Y-43261904D01*
X73359580Y-43261904D02*
X73264342Y-43214285D01*
X73264342Y-43214285D02*
X73026247Y-43214285D01*
X73026247Y-43214285D02*
X72931009Y-43261904D01*
X72931009Y-43261904D02*
X72883390Y-43309523D01*
X72883390Y-43309523D02*
X72835771Y-43404761D01*
X72835771Y-43404761D02*
X72835771Y-43595237D01*
X72835771Y-43595237D02*
X72883390Y-43690475D01*
X72883390Y-43690475D02*
X72931009Y-43738094D01*
X72931009Y-43738094D02*
X73026247Y-43785713D01*
X66896880Y-71216666D02*
X66944500Y-71264285D01*
X66944500Y-71264285D02*
X66992119Y-71407142D01*
X66992119Y-71407142D02*
X66992119Y-71502380D01*
X66992119Y-71502380D02*
X66944500Y-71645237D01*
X66944500Y-71645237D02*
X66849261Y-71740475D01*
X66849261Y-71740475D02*
X66754023Y-71788094D01*
X66754023Y-71788094D02*
X66563547Y-71835713D01*
X66563547Y-71835713D02*
X66420690Y-71835713D01*
X66420690Y-71835713D02*
X66230214Y-71788094D01*
X66230214Y-71788094D02*
X66134976Y-71740475D01*
X66134976Y-71740475D02*
X66039738Y-71645237D01*
X66039738Y-71645237D02*
X65992119Y-71502380D01*
X65992119Y-71502380D02*
X65992119Y-71407142D01*
X65992119Y-71407142D02*
X66039738Y-71264285D01*
X66039738Y-71264285D02*
X66087357Y-71216666D01*
X65992119Y-70359523D02*
X65992119Y-70549999D01*
X65992119Y-70549999D02*
X66039738Y-70645237D01*
X66039738Y-70645237D02*
X66087357Y-70692856D01*
X66087357Y-70692856D02*
X66230214Y-70788094D01*
X66230214Y-70788094D02*
X66420690Y-70835713D01*
X66420690Y-70835713D02*
X66801642Y-70835713D01*
X66801642Y-70835713D02*
X66896880Y-70788094D01*
X66896880Y-70788094D02*
X66944500Y-70740475D01*
X66944500Y-70740475D02*
X66992119Y-70645237D01*
X66992119Y-70645237D02*
X66992119Y-70454761D01*
X66992119Y-70454761D02*
X66944500Y-70359523D01*
X66944500Y-70359523D02*
X66896880Y-70311904D01*
X66896880Y-70311904D02*
X66801642Y-70264285D01*
X66801642Y-70264285D02*
X66563547Y-70264285D01*
X66563547Y-70264285D02*
X66468309Y-70311904D01*
X66468309Y-70311904D02*
X66420690Y-70359523D01*
X66420690Y-70359523D02*
X66373071Y-70454761D01*
X66373071Y-70454761D02*
X66373071Y-70645237D01*
X66373071Y-70645237D02*
X66420690Y-70740475D01*
X66420690Y-70740475D02*
X66468309Y-70788094D01*
X66468309Y-70788094D02*
X66563547Y-70835713D01*
X89359580Y-56166666D02*
X89407200Y-56214285D01*
X89407200Y-56214285D02*
X89454819Y-56357142D01*
X89454819Y-56357142D02*
X89454819Y-56452380D01*
X89454819Y-56452380D02*
X89407200Y-56595237D01*
X89407200Y-56595237D02*
X89311961Y-56690475D01*
X89311961Y-56690475D02*
X89216723Y-56738094D01*
X89216723Y-56738094D02*
X89026247Y-56785713D01*
X89026247Y-56785713D02*
X88883390Y-56785713D01*
X88883390Y-56785713D02*
X88692914Y-56738094D01*
X88692914Y-56738094D02*
X88597676Y-56690475D01*
X88597676Y-56690475D02*
X88502438Y-56595237D01*
X88502438Y-56595237D02*
X88454819Y-56452380D01*
X88454819Y-56452380D02*
X88454819Y-56357142D01*
X88454819Y-56357142D02*
X88502438Y-56214285D01*
X88502438Y-56214285D02*
X88550057Y-56166666D01*
X89454819Y-55690475D02*
X89454819Y-55499999D01*
X89454819Y-55499999D02*
X89407200Y-55404761D01*
X89407200Y-55404761D02*
X89359580Y-55357142D01*
X89359580Y-55357142D02*
X89216723Y-55261904D01*
X89216723Y-55261904D02*
X89026247Y-55214285D01*
X89026247Y-55214285D02*
X88645295Y-55214285D01*
X88645295Y-55214285D02*
X88550057Y-55261904D01*
X88550057Y-55261904D02*
X88502438Y-55309523D01*
X88502438Y-55309523D02*
X88454819Y-55404761D01*
X88454819Y-55404761D02*
X88454819Y-55595237D01*
X88454819Y-55595237D02*
X88502438Y-55690475D01*
X88502438Y-55690475D02*
X88550057Y-55738094D01*
X88550057Y-55738094D02*
X88645295Y-55785713D01*
X88645295Y-55785713D02*
X88883390Y-55785713D01*
X88883390Y-55785713D02*
X88978628Y-55738094D01*
X88978628Y-55738094D02*
X89026247Y-55690475D01*
X89026247Y-55690475D02*
X89073866Y-55595237D01*
X89073866Y-55595237D02*
X89073866Y-55404761D01*
X89073866Y-55404761D02*
X89026247Y-55309523D01*
X89026247Y-55309523D02*
X88978628Y-55261904D01*
X88978628Y-55261904D02*
X88883390Y-55214285D01*
X73441861Y-47682844D02*
X72965670Y-48016177D01*
X73441861Y-48254272D02*
X72441861Y-48254272D01*
X72441861Y-48254272D02*
X72441861Y-47873320D01*
X72441861Y-47873320D02*
X72489480Y-47778082D01*
X72489480Y-47778082D02*
X72537099Y-47730463D01*
X72537099Y-47730463D02*
X72632337Y-47682844D01*
X72632337Y-47682844D02*
X72775194Y-47682844D01*
X72775194Y-47682844D02*
X72870432Y-47730463D01*
X72870432Y-47730463D02*
X72918051Y-47778082D01*
X72918051Y-47778082D02*
X72965670Y-47873320D01*
X72965670Y-47873320D02*
X72965670Y-48254272D01*
X72775194Y-46825701D02*
X73441861Y-46825701D01*
X72394242Y-47063796D02*
X73108527Y-47301891D01*
X73108527Y-47301891D02*
X73108527Y-46682844D01*
X67429580Y-60616666D02*
X67477200Y-60664285D01*
X67477200Y-60664285D02*
X67524819Y-60807142D01*
X67524819Y-60807142D02*
X67524819Y-60902380D01*
X67524819Y-60902380D02*
X67477200Y-61045237D01*
X67477200Y-61045237D02*
X67381961Y-61140475D01*
X67381961Y-61140475D02*
X67286723Y-61188094D01*
X67286723Y-61188094D02*
X67096247Y-61235713D01*
X67096247Y-61235713D02*
X66953390Y-61235713D01*
X66953390Y-61235713D02*
X66762914Y-61188094D01*
X66762914Y-61188094D02*
X66667676Y-61140475D01*
X66667676Y-61140475D02*
X66572438Y-61045237D01*
X66572438Y-61045237D02*
X66524819Y-60902380D01*
X66524819Y-60902380D02*
X66524819Y-60807142D01*
X66524819Y-60807142D02*
X66572438Y-60664285D01*
X66572438Y-60664285D02*
X66620057Y-60616666D01*
X66858152Y-59759523D02*
X67524819Y-59759523D01*
X66477200Y-59997618D02*
X67191485Y-60235713D01*
X67191485Y-60235713D02*
X67191485Y-59616666D01*
X79299819Y-82833333D02*
X80014104Y-82833333D01*
X80014104Y-82833333D02*
X80156961Y-82880952D01*
X80156961Y-82880952D02*
X80252200Y-82976190D01*
X80252200Y-82976190D02*
X80299819Y-83119047D01*
X80299819Y-83119047D02*
X80299819Y-83214285D01*
X80299819Y-82357142D02*
X79299819Y-82357142D01*
X79299819Y-82357142D02*
X79299819Y-81976190D01*
X79299819Y-81976190D02*
X79347438Y-81880952D01*
X79347438Y-81880952D02*
X79395057Y-81833333D01*
X79395057Y-81833333D02*
X79490295Y-81785714D01*
X79490295Y-81785714D02*
X79633152Y-81785714D01*
X79633152Y-81785714D02*
X79728390Y-81833333D01*
X79728390Y-81833333D02*
X79776009Y-81880952D01*
X79776009Y-81880952D02*
X79823628Y-81976190D01*
X79823628Y-81976190D02*
X79823628Y-82357142D01*
X80299819Y-80833333D02*
X80299819Y-81404761D01*
X80299819Y-81119047D02*
X79299819Y-81119047D01*
X79299819Y-81119047D02*
X79442676Y-81214285D01*
X79442676Y-81214285D02*
X79537914Y-81309523D01*
X79537914Y-81309523D02*
X79585533Y-81404761D01*
X73109580Y-54916666D02*
X73157200Y-54964285D01*
X73157200Y-54964285D02*
X73204819Y-55107142D01*
X73204819Y-55107142D02*
X73204819Y-55202380D01*
X73204819Y-55202380D02*
X73157200Y-55345237D01*
X73157200Y-55345237D02*
X73061961Y-55440475D01*
X73061961Y-55440475D02*
X72966723Y-55488094D01*
X72966723Y-55488094D02*
X72776247Y-55535713D01*
X72776247Y-55535713D02*
X72633390Y-55535713D01*
X72633390Y-55535713D02*
X72442914Y-55488094D01*
X72442914Y-55488094D02*
X72347676Y-55440475D01*
X72347676Y-55440475D02*
X72252438Y-55345237D01*
X72252438Y-55345237D02*
X72204819Y-55202380D01*
X72204819Y-55202380D02*
X72204819Y-55107142D01*
X72204819Y-55107142D02*
X72252438Y-54964285D01*
X72252438Y-54964285D02*
X72300057Y-54916666D01*
X72633390Y-54345237D02*
X72585771Y-54440475D01*
X72585771Y-54440475D02*
X72538152Y-54488094D01*
X72538152Y-54488094D02*
X72442914Y-54535713D01*
X72442914Y-54535713D02*
X72395295Y-54535713D01*
X72395295Y-54535713D02*
X72300057Y-54488094D01*
X72300057Y-54488094D02*
X72252438Y-54440475D01*
X72252438Y-54440475D02*
X72204819Y-54345237D01*
X72204819Y-54345237D02*
X72204819Y-54154761D01*
X72204819Y-54154761D02*
X72252438Y-54059523D01*
X72252438Y-54059523D02*
X72300057Y-54011904D01*
X72300057Y-54011904D02*
X72395295Y-53964285D01*
X72395295Y-53964285D02*
X72442914Y-53964285D01*
X72442914Y-53964285D02*
X72538152Y-54011904D01*
X72538152Y-54011904D02*
X72585771Y-54059523D01*
X72585771Y-54059523D02*
X72633390Y-54154761D01*
X72633390Y-54154761D02*
X72633390Y-54345237D01*
X72633390Y-54345237D02*
X72681009Y-54440475D01*
X72681009Y-54440475D02*
X72728628Y-54488094D01*
X72728628Y-54488094D02*
X72823866Y-54535713D01*
X72823866Y-54535713D02*
X73014342Y-54535713D01*
X73014342Y-54535713D02*
X73109580Y-54488094D01*
X73109580Y-54488094D02*
X73157200Y-54440475D01*
X73157200Y-54440475D02*
X73204819Y-54345237D01*
X73204819Y-54345237D02*
X73204819Y-54154761D01*
X73204819Y-54154761D02*
X73157200Y-54059523D01*
X73157200Y-54059523D02*
X73109580Y-54011904D01*
X73109580Y-54011904D02*
X73014342Y-53964285D01*
X73014342Y-53964285D02*
X72823866Y-53964285D01*
X72823866Y-53964285D02*
X72728628Y-54011904D01*
X72728628Y-54011904D02*
X72681009Y-54059523D01*
X72681009Y-54059523D02*
X72633390Y-54154761D01*
X92761905Y-62954819D02*
X92761905Y-61954819D01*
X92761905Y-61954819D02*
X93000000Y-61954819D01*
X93000000Y-61954819D02*
X93142857Y-62002438D01*
X93142857Y-62002438D02*
X93238095Y-62097676D01*
X93238095Y-62097676D02*
X93285714Y-62192914D01*
X93285714Y-62192914D02*
X93333333Y-62383390D01*
X93333333Y-62383390D02*
X93333333Y-62526247D01*
X93333333Y-62526247D02*
X93285714Y-62716723D01*
X93285714Y-62716723D02*
X93238095Y-62811961D01*
X93238095Y-62811961D02*
X93142857Y-62907200D01*
X93142857Y-62907200D02*
X93000000Y-62954819D01*
X93000000Y-62954819D02*
X92761905Y-62954819D01*
X94285714Y-62954819D02*
X93714286Y-62954819D01*
X94000000Y-62954819D02*
X94000000Y-61954819D01*
X94000000Y-61954819D02*
X93904762Y-62097676D01*
X93904762Y-62097676D02*
X93809524Y-62192914D01*
X93809524Y-62192914D02*
X93714286Y-62240533D01*
X73454819Y-42166666D02*
X72978628Y-42499999D01*
X73454819Y-42738094D02*
X72454819Y-42738094D01*
X72454819Y-42738094D02*
X72454819Y-42357142D01*
X72454819Y-42357142D02*
X72502438Y-42261904D01*
X72502438Y-42261904D02*
X72550057Y-42214285D01*
X72550057Y-42214285D02*
X72645295Y-42166666D01*
X72645295Y-42166666D02*
X72788152Y-42166666D01*
X72788152Y-42166666D02*
X72883390Y-42214285D01*
X72883390Y-42214285D02*
X72931009Y-42261904D01*
X72931009Y-42261904D02*
X72978628Y-42357142D01*
X72978628Y-42357142D02*
X72978628Y-42738094D01*
X72454819Y-41833332D02*
X72454819Y-41166666D01*
X72454819Y-41166666D02*
X73454819Y-41595237D01*
X98859580Y-61666666D02*
X98907200Y-61714285D01*
X98907200Y-61714285D02*
X98954819Y-61857142D01*
X98954819Y-61857142D02*
X98954819Y-61952380D01*
X98954819Y-61952380D02*
X98907200Y-62095237D01*
X98907200Y-62095237D02*
X98811961Y-62190475D01*
X98811961Y-62190475D02*
X98716723Y-62238094D01*
X98716723Y-62238094D02*
X98526247Y-62285713D01*
X98526247Y-62285713D02*
X98383390Y-62285713D01*
X98383390Y-62285713D02*
X98192914Y-62238094D01*
X98192914Y-62238094D02*
X98097676Y-62190475D01*
X98097676Y-62190475D02*
X98002438Y-62095237D01*
X98002438Y-62095237D02*
X97954819Y-61952380D01*
X97954819Y-61952380D02*
X97954819Y-61857142D01*
X97954819Y-61857142D02*
X98002438Y-61714285D01*
X98002438Y-61714285D02*
X98050057Y-61666666D01*
X98954819Y-60714285D02*
X98954819Y-61285713D01*
X98954819Y-60999999D02*
X97954819Y-60999999D01*
X97954819Y-60999999D02*
X98097676Y-61095237D01*
X98097676Y-61095237D02*
X98192914Y-61190475D01*
X98192914Y-61190475D02*
X98240533Y-61285713D01*
X92896666Y-48534819D02*
X92896666Y-49249104D01*
X92896666Y-49249104D02*
X92849047Y-49391961D01*
X92849047Y-49391961D02*
X92753809Y-49487200D01*
X92753809Y-49487200D02*
X92610952Y-49534819D01*
X92610952Y-49534819D02*
X92515714Y-49534819D01*
X93277619Y-48534819D02*
X93896666Y-48534819D01*
X93896666Y-48534819D02*
X93563333Y-48915771D01*
X93563333Y-48915771D02*
X93706190Y-48915771D01*
X93706190Y-48915771D02*
X93801428Y-48963390D01*
X93801428Y-48963390D02*
X93849047Y-49011009D01*
X93849047Y-49011009D02*
X93896666Y-49106247D01*
X93896666Y-49106247D02*
X93896666Y-49344342D01*
X93896666Y-49344342D02*
X93849047Y-49439580D01*
X93849047Y-49439580D02*
X93801428Y-49487200D01*
X93801428Y-49487200D02*
X93706190Y-49534819D01*
X93706190Y-49534819D02*
X93420476Y-49534819D01*
X93420476Y-49534819D02*
X93325238Y-49487200D01*
X93325238Y-49487200D02*
X93277619Y-49439580D01*
X65666666Y-51454819D02*
X65666666Y-52169104D01*
X65666666Y-52169104D02*
X65619047Y-52311961D01*
X65619047Y-52311961D02*
X65523809Y-52407200D01*
X65523809Y-52407200D02*
X65380952Y-52454819D01*
X65380952Y-52454819D02*
X65285714Y-52454819D01*
X66095238Y-51550057D02*
X66142857Y-51502438D01*
X66142857Y-51502438D02*
X66238095Y-51454819D01*
X66238095Y-51454819D02*
X66476190Y-51454819D01*
X66476190Y-51454819D02*
X66571428Y-51502438D01*
X66571428Y-51502438D02*
X66619047Y-51550057D01*
X66619047Y-51550057D02*
X66666666Y-51645295D01*
X66666666Y-51645295D02*
X66666666Y-51740533D01*
X66666666Y-51740533D02*
X66619047Y-51883390D01*
X66619047Y-51883390D02*
X66047619Y-52454819D01*
X66047619Y-52454819D02*
X66666666Y-52454819D01*
X90907200Y-47333332D02*
X90954819Y-47190475D01*
X90954819Y-47190475D02*
X90954819Y-46952380D01*
X90954819Y-46952380D02*
X90907200Y-46857142D01*
X90907200Y-46857142D02*
X90859580Y-46809523D01*
X90859580Y-46809523D02*
X90764342Y-46761904D01*
X90764342Y-46761904D02*
X90669104Y-46761904D01*
X90669104Y-46761904D02*
X90573866Y-46809523D01*
X90573866Y-46809523D02*
X90526247Y-46857142D01*
X90526247Y-46857142D02*
X90478628Y-46952380D01*
X90478628Y-46952380D02*
X90431009Y-47142856D01*
X90431009Y-47142856D02*
X90383390Y-47238094D01*
X90383390Y-47238094D02*
X90335771Y-47285713D01*
X90335771Y-47285713D02*
X90240533Y-47333332D01*
X90240533Y-47333332D02*
X90145295Y-47333332D01*
X90145295Y-47333332D02*
X90050057Y-47285713D01*
X90050057Y-47285713D02*
X90002438Y-47238094D01*
X90002438Y-47238094D02*
X89954819Y-47142856D01*
X89954819Y-47142856D02*
X89954819Y-46904761D01*
X89954819Y-46904761D02*
X90002438Y-46761904D01*
X89954819Y-46428570D02*
X90954819Y-46190475D01*
X90954819Y-46190475D02*
X90240533Y-45999999D01*
X90240533Y-45999999D02*
X90954819Y-45809523D01*
X90954819Y-45809523D02*
X89954819Y-45571428D01*
X90050057Y-45238094D02*
X90002438Y-45190475D01*
X90002438Y-45190475D02*
X89954819Y-45095237D01*
X89954819Y-45095237D02*
X89954819Y-44857142D01*
X89954819Y-44857142D02*
X90002438Y-44761904D01*
X90002438Y-44761904D02*
X90050057Y-44714285D01*
X90050057Y-44714285D02*
X90145295Y-44666666D01*
X90145295Y-44666666D02*
X90240533Y-44666666D01*
X90240533Y-44666666D02*
X90383390Y-44714285D01*
X90383390Y-44714285D02*
X90954819Y-45285713D01*
X90954819Y-45285713D02*
X90954819Y-44666666D01*
X76333333Y-56359580D02*
X76285714Y-56407200D01*
X76285714Y-56407200D02*
X76142857Y-56454819D01*
X76142857Y-56454819D02*
X76047619Y-56454819D01*
X76047619Y-56454819D02*
X75904762Y-56407200D01*
X75904762Y-56407200D02*
X75809524Y-56311961D01*
X75809524Y-56311961D02*
X75761905Y-56216723D01*
X75761905Y-56216723D02*
X75714286Y-56026247D01*
X75714286Y-56026247D02*
X75714286Y-55883390D01*
X75714286Y-55883390D02*
X75761905Y-55692914D01*
X75761905Y-55692914D02*
X75809524Y-55597676D01*
X75809524Y-55597676D02*
X75904762Y-55502438D01*
X75904762Y-55502438D02*
X76047619Y-55454819D01*
X76047619Y-55454819D02*
X76142857Y-55454819D01*
X76142857Y-55454819D02*
X76285714Y-55502438D01*
X76285714Y-55502438D02*
X76333333Y-55550057D01*
X76666667Y-55454819D02*
X77333333Y-55454819D01*
X77333333Y-55454819D02*
X76904762Y-56454819D01*
X92833333Y-60454819D02*
X92500000Y-59978628D01*
X92261905Y-60454819D02*
X92261905Y-59454819D01*
X92261905Y-59454819D02*
X92642857Y-59454819D01*
X92642857Y-59454819D02*
X92738095Y-59502438D01*
X92738095Y-59502438D02*
X92785714Y-59550057D01*
X92785714Y-59550057D02*
X92833333Y-59645295D01*
X92833333Y-59645295D02*
X92833333Y-59788152D01*
X92833333Y-59788152D02*
X92785714Y-59883390D01*
X92785714Y-59883390D02*
X92738095Y-59931009D01*
X92738095Y-59931009D02*
X92642857Y-59978628D01*
X92642857Y-59978628D02*
X92261905Y-59978628D01*
X93166667Y-59454819D02*
X93785714Y-59454819D01*
X93785714Y-59454819D02*
X93452381Y-59835771D01*
X93452381Y-59835771D02*
X93595238Y-59835771D01*
X93595238Y-59835771D02*
X93690476Y-59883390D01*
X93690476Y-59883390D02*
X93738095Y-59931009D01*
X93738095Y-59931009D02*
X93785714Y-60026247D01*
X93785714Y-60026247D02*
X93785714Y-60264342D01*
X93785714Y-60264342D02*
X93738095Y-60359580D01*
X93738095Y-60359580D02*
X93690476Y-60407200D01*
X93690476Y-60407200D02*
X93595238Y-60454819D01*
X93595238Y-60454819D02*
X93309524Y-60454819D01*
X93309524Y-60454819D02*
X93214286Y-60407200D01*
X93214286Y-60407200D02*
X93166667Y-60359580D01*
%TO.C,R8*%
D11*
X90237258Y-63477500D02*
X89762742Y-63477500D01*
X90237258Y-64522500D02*
X89762742Y-64522500D01*
%TO.C,J1*%
X102997500Y-49820000D02*
X109737500Y-49820000D01*
X102997500Y-55640000D02*
X102997500Y-49820000D01*
X104717500Y-55640000D02*
X104717500Y-49820000D01*
X107817500Y-55640000D02*
X107817500Y-49820000D01*
X108817500Y-55640000D02*
X108817500Y-49820000D01*
X109737500Y-49820000D02*
X109737500Y-53700000D01*
X109737500Y-54300000D02*
X109737500Y-55640000D01*
X109737500Y-55640000D02*
X102997500Y-55640000D01*
X110347500Y-54440000D02*
X109737500Y-54000000D01*
X110347500Y-53560000D01*
X110347500Y-54440000D01*
G36*
X110347500Y-54440000D02*
G01*
X109737500Y-54000000D01*
X110347500Y-53560000D01*
X110347500Y-54440000D01*
G37*
%TO.C,C3*%
X77490000Y-66359420D02*
X77490000Y-66640580D01*
X78510000Y-66359420D02*
X78510000Y-66640580D01*
%TO.C,C5*%
X67990000Y-63815580D02*
X67990000Y-63534420D01*
X69010000Y-63815580D02*
X69010000Y-63534420D01*
%TO.C,IC3*%
D12*
X79887300Y-65900000D02*
X79887300Y-79100000D01*
X79887300Y-79100000D02*
X106787300Y-79100000D01*
D13*
X79917300Y-68055000D02*
X79917300Y-66785000D01*
X79917300Y-69325000D02*
X80552300Y-68690000D01*
X79917300Y-70595000D02*
X79917300Y-69325000D01*
X79917300Y-71865000D02*
X80552300Y-71230000D01*
X79917300Y-73135000D02*
X79917300Y-71865000D01*
X79917300Y-75675000D02*
X79917300Y-74405000D01*
X79917300Y-76945000D02*
X80552300Y-76310000D01*
X79917300Y-78215000D02*
X79917300Y-76945000D01*
X80552300Y-66150000D02*
X79917300Y-66785000D01*
X80552300Y-68690000D02*
X79917300Y-68055000D01*
X80552300Y-71230000D02*
X79917300Y-70595000D01*
X80552300Y-73770000D02*
X79917300Y-73135000D01*
X80552300Y-73770000D02*
X79917300Y-74405000D01*
X80552300Y-76310000D02*
X79917300Y-75675000D01*
X80552300Y-78850000D02*
X79917300Y-78215000D01*
X81822300Y-66150000D02*
X80552300Y-66150000D01*
X81822300Y-68690000D02*
X82457300Y-69325000D01*
X81822300Y-71230000D02*
X82457300Y-71865000D01*
X81822300Y-76310000D02*
X82457300Y-76945000D01*
X81822300Y-78850000D02*
X80552300Y-78850000D01*
X82457300Y-66785000D02*
X81822300Y-66150000D01*
X82457300Y-66785000D02*
X82457300Y-68055000D01*
X82457300Y-68055000D02*
X81822300Y-68690000D01*
X82457300Y-69325000D02*
X82457300Y-70595000D01*
X82457300Y-70595000D02*
X81822300Y-71230000D01*
X82457300Y-71865000D02*
X82457300Y-73135000D01*
X82457300Y-73135000D02*
X81822300Y-73770000D01*
X82457300Y-74405000D02*
X81822300Y-73770000D01*
X82457300Y-74405000D02*
X82457300Y-75675000D01*
X82457300Y-75675000D02*
X81822300Y-76310000D01*
X82457300Y-76945000D02*
X82457300Y-78215000D01*
X82457300Y-78215000D02*
X81822300Y-78850000D01*
D12*
X106787300Y-65900000D02*
X79887300Y-65900000D01*
X106787300Y-79100000D02*
X106787300Y-65900000D01*
%TO.C,Y1*%
D11*
X70565000Y-65625000D02*
X70565000Y-59375000D01*
X75435000Y-59375000D02*
X75435000Y-65625000D01*
X70565000Y-59375000D02*
G75*
G02*
X75435000Y-59375000I2435000J0D01*
G01*
X75435000Y-65625000D02*
G75*
G02*
X70565000Y-65625000I-2435000J0D01*
G01*
%TO.C,IC2*%
X79390000Y-55890000D02*
X79665000Y-55890000D01*
X79390000Y-56165000D02*
X79390000Y-55890000D01*
X79390000Y-63110000D02*
X79390000Y-62835000D01*
X79665000Y-63110000D02*
X79390000Y-63110000D01*
X86335000Y-55890000D02*
X86610000Y-55890000D01*
X86610000Y-55890000D02*
X86610000Y-56165000D01*
X86610000Y-62835000D02*
X86610000Y-63110000D01*
X86610000Y-63110000D02*
X86335000Y-63110000D01*
X78750000Y-56160000D02*
X78410000Y-55690000D01*
X79090000Y-55690000D01*
X78750000Y-56160000D01*
G36*
X78750000Y-56160000D02*
G01*
X78410000Y-55690000D01*
X79090000Y-55690000D01*
X78750000Y-56160000D01*
G37*
%TO.C,R1*%
X75477500Y-70262742D02*
X75477500Y-70737258D01*
X76522500Y-70262742D02*
X76522500Y-70737258D01*
%TO.C,R2*%
X75477500Y-74262742D02*
X75477500Y-74737258D01*
X76522500Y-74262742D02*
X76522500Y-74737258D01*
%TO.C,R5*%
X75072742Y-45477500D02*
X75547258Y-45477500D01*
X75072742Y-46522500D02*
X75547258Y-46522500D01*
%TO.C,F1*%
X100837221Y-50245000D02*
X101162779Y-50245000D01*
X100837221Y-51265000D02*
X101162779Y-51265000D01*
%TO.C,R6*%
X75072742Y-43977500D02*
X75547258Y-43977500D01*
X75072742Y-45022500D02*
X75547258Y-45022500D01*
%TO.C,C6*%
X67707300Y-71010000D02*
X72867300Y-71010000D01*
X67707300Y-71050000D02*
X72867300Y-71050000D01*
X67708300Y-70970000D02*
X72866300Y-70970000D01*
X67710300Y-70930000D02*
X72864300Y-70930000D01*
X67712300Y-70890000D02*
X72862300Y-70890000D01*
X67715300Y-70850000D02*
X72859300Y-70850000D01*
X67718300Y-70810000D02*
X69247300Y-70810000D01*
X67722300Y-70770000D02*
X69247300Y-70770000D01*
X67727300Y-70730000D02*
X69247300Y-70730000D01*
X67732300Y-70690000D02*
X69247300Y-70690000D01*
X67738300Y-70650000D02*
X69247300Y-70650000D01*
X67744300Y-70610000D02*
X69247300Y-70610000D01*
X67751300Y-70570000D02*
X69247300Y-70570000D01*
X67759300Y-70530000D02*
X69247300Y-70530000D01*
X67768300Y-70490000D02*
X69247300Y-70490000D01*
X67777300Y-70450000D02*
X69247300Y-70450000D01*
X67786300Y-70410000D02*
X69247300Y-70410000D01*
X67797300Y-70370000D02*
X69247300Y-70370000D01*
X67808300Y-70330000D02*
X69247300Y-70330000D01*
X67820300Y-70290000D02*
X69247300Y-70290000D01*
X67832300Y-70250000D02*
X69247300Y-70250000D01*
X67845300Y-70210000D02*
X69247300Y-70210000D01*
X67859300Y-70170000D02*
X69247300Y-70170000D01*
X67874300Y-70130000D02*
X69247300Y-70130000D01*
X67889300Y-70090000D02*
X69247300Y-70090000D01*
X67905300Y-70050000D02*
X69247300Y-70050000D01*
X67922300Y-70010000D02*
X69247300Y-70010000D01*
X67940300Y-69970000D02*
X69247300Y-69970000D01*
X67958300Y-69930000D02*
X69247300Y-69930000D01*
X67978300Y-69890000D02*
X69247300Y-69890000D01*
X67998300Y-69850000D02*
X69247300Y-69850000D01*
X68019300Y-69810000D02*
X69247300Y-69810000D01*
X68041300Y-69770000D02*
X69247300Y-69770000D01*
X68064300Y-69730000D02*
X69247300Y-69730000D01*
X68088300Y-69690000D02*
X69247300Y-69690000D01*
X68112300Y-69650000D02*
X69247300Y-69650000D01*
X68138300Y-69610000D02*
X69247300Y-69610000D01*
X68165300Y-69570000D02*
X69247300Y-69570000D01*
X68193300Y-69530000D02*
X69247300Y-69530000D01*
X68222300Y-69490000D02*
X69247300Y-69490000D01*
X68252300Y-69450000D02*
X69247300Y-69450000D01*
X68284300Y-69410000D02*
X69247300Y-69410000D01*
X68317300Y-69370000D02*
X69247300Y-69370000D01*
X68351300Y-69330000D02*
X69247300Y-69330000D01*
X68386300Y-69290000D02*
X69247300Y-69290000D01*
X68423300Y-69250000D02*
X69247300Y-69250000D01*
X68462300Y-69210000D02*
X69247300Y-69210000D01*
X68502300Y-69170000D02*
X69247300Y-69170000D01*
X68544300Y-69130000D02*
X69247300Y-69130000D01*
X68562300Y-73604775D02*
X69062300Y-73604775D01*
X68588300Y-69090000D02*
X69247300Y-69090000D01*
X68635300Y-69050000D02*
X69247300Y-69050000D01*
X68683300Y-69010000D02*
X69247300Y-69010000D01*
X68734300Y-68970000D02*
X69247300Y-68970000D01*
X68788300Y-68930000D02*
X69247300Y-68930000D01*
X68812300Y-73854775D02*
X68812300Y-73354775D01*
X68844300Y-68890000D02*
X69247300Y-68890000D01*
X68904300Y-68850000D02*
X69247300Y-68850000D01*
X68968300Y-68810000D02*
X69247300Y-68810000D01*
X69036300Y-68770000D02*
X69247300Y-68770000D01*
X69110300Y-68730000D02*
X71464300Y-68730000D01*
X69189300Y-68690000D02*
X71385300Y-68690000D01*
X69276300Y-68650000D02*
X71298300Y-68650000D01*
X69373300Y-68610000D02*
X71201300Y-68610000D01*
X69482300Y-68570000D02*
X71092300Y-68570000D01*
X69610300Y-68530000D02*
X70964300Y-68530000D01*
X69770300Y-68490000D02*
X70804300Y-68490000D01*
X70004300Y-68450000D02*
X70570300Y-68450000D01*
X71327300Y-68770000D02*
X71538300Y-68770000D01*
X71327300Y-68810000D02*
X71606300Y-68810000D01*
X71327300Y-68850000D02*
X71670300Y-68850000D01*
X71327300Y-68890000D02*
X71730300Y-68890000D01*
X71327300Y-68930000D02*
X71786300Y-68930000D01*
X71327300Y-68970000D02*
X71840300Y-68970000D01*
X71327300Y-69010000D02*
X71891300Y-69010000D01*
X71327300Y-69050000D02*
X71939300Y-69050000D01*
X71327300Y-69090000D02*
X71986300Y-69090000D01*
X71327300Y-69130000D02*
X72030300Y-69130000D01*
X71327300Y-69170000D02*
X72072300Y-69170000D01*
X71327300Y-69210000D02*
X72112300Y-69210000D01*
X71327300Y-69250000D02*
X72151300Y-69250000D01*
X71327300Y-69290000D02*
X72188300Y-69290000D01*
X71327300Y-69330000D02*
X72223300Y-69330000D01*
X71327300Y-69370000D02*
X72257300Y-69370000D01*
X71327300Y-69410000D02*
X72290300Y-69410000D01*
X71327300Y-69450000D02*
X72322300Y-69450000D01*
X71327300Y-69490000D02*
X72352300Y-69490000D01*
X71327300Y-69530000D02*
X72381300Y-69530000D01*
X71327300Y-69570000D02*
X72409300Y-69570000D01*
X71327300Y-69610000D02*
X72436300Y-69610000D01*
X71327300Y-69650000D02*
X72462300Y-69650000D01*
X71327300Y-69690000D02*
X72486300Y-69690000D01*
X71327300Y-69730000D02*
X72510300Y-69730000D01*
X71327300Y-69770000D02*
X72533300Y-69770000D01*
X71327300Y-69810000D02*
X72555300Y-69810000D01*
X71327300Y-69850000D02*
X72576300Y-69850000D01*
X71327300Y-69890000D02*
X72596300Y-69890000D01*
X71327300Y-69930000D02*
X72616300Y-69930000D01*
X71327300Y-69970000D02*
X72634300Y-69970000D01*
X71327300Y-70010000D02*
X72652300Y-70010000D01*
X71327300Y-70050000D02*
X72669300Y-70050000D01*
X71327300Y-70090000D02*
X72685300Y-70090000D01*
X71327300Y-70130000D02*
X72700300Y-70130000D01*
X71327300Y-70170000D02*
X72715300Y-70170000D01*
X71327300Y-70210000D02*
X72729300Y-70210000D01*
X71327300Y-70250000D02*
X72742300Y-70250000D01*
X71327300Y-70290000D02*
X72754300Y-70290000D01*
X71327300Y-70330000D02*
X72766300Y-70330000D01*
X71327300Y-70370000D02*
X72777300Y-70370000D01*
X71327300Y-70410000D02*
X72788300Y-70410000D01*
X71327300Y-70450000D02*
X72797300Y-70450000D01*
X71327300Y-70490000D02*
X72806300Y-70490000D01*
X71327300Y-70530000D02*
X72815300Y-70530000D01*
X71327300Y-70570000D02*
X72823300Y-70570000D01*
X71327300Y-70610000D02*
X72830300Y-70610000D01*
X71327300Y-70650000D02*
X72836300Y-70650000D01*
X71327300Y-70690000D02*
X72842300Y-70690000D01*
X71327300Y-70730000D02*
X72847300Y-70730000D01*
X71327300Y-70770000D02*
X72852300Y-70770000D01*
X71327300Y-70810000D02*
X72856300Y-70810000D01*
X72907300Y-71050000D02*
G75*
G02*
X67667300Y-71050000I-2620000J0D01*
G01*
X67667300Y-71050000D02*
G75*
G02*
X72907300Y-71050000I2620000J0D01*
G01*
%TO.C,C9*%
X88735000Y-58364420D02*
X88735000Y-58645580D01*
X89755000Y-58364420D02*
X89755000Y-58645580D01*
%TO.C,R4*%
X75059784Y-46993678D02*
X75534300Y-46993678D01*
X75059784Y-48038678D02*
X75534300Y-48038678D01*
%TO.C,C4*%
X67990000Y-60590580D02*
X67990000Y-60309420D01*
X69010000Y-60590580D02*
X69010000Y-60309420D01*
%TO.C,JP1*%
X80845000Y-83380000D02*
X80845000Y-82000000D01*
X82225000Y-83380000D02*
X80845000Y-83380000D01*
X83495000Y-80620000D02*
X86145000Y-80620000D01*
X83495000Y-83380000D02*
X83495000Y-80620000D01*
X83495000Y-83380000D02*
X86145000Y-83380000D01*
X86145000Y-83380000D02*
X86145000Y-80620000D01*
%TO.C,C8*%
X67960000Y-54990000D02*
X66431000Y-54990000D01*
X67960000Y-55030000D02*
X66435000Y-55030000D01*
X67960000Y-55070000D02*
X66440000Y-55070000D01*
X67960000Y-55110000D02*
X66445000Y-55110000D01*
X67960000Y-55150000D02*
X66451000Y-55150000D01*
X67960000Y-55190000D02*
X66457000Y-55190000D01*
X67960000Y-55230000D02*
X66464000Y-55230000D01*
X67960000Y-55270000D02*
X66472000Y-55270000D01*
X67960000Y-55310000D02*
X66481000Y-55310000D01*
X67960000Y-55350000D02*
X66490000Y-55350000D01*
X67960000Y-55390000D02*
X66499000Y-55390000D01*
X67960000Y-55430000D02*
X66510000Y-55430000D01*
X67960000Y-55470000D02*
X66521000Y-55470000D01*
X67960000Y-55510000D02*
X66533000Y-55510000D01*
X67960000Y-55550000D02*
X66545000Y-55550000D01*
X67960000Y-55590000D02*
X66558000Y-55590000D01*
X67960000Y-55630000D02*
X66572000Y-55630000D01*
X67960000Y-55670000D02*
X66587000Y-55670000D01*
X67960000Y-55710000D02*
X66602000Y-55710000D01*
X67960000Y-55750000D02*
X66618000Y-55750000D01*
X67960000Y-55790000D02*
X66635000Y-55790000D01*
X67960000Y-55830000D02*
X66653000Y-55830000D01*
X67960000Y-55870000D02*
X66671000Y-55870000D01*
X67960000Y-55910000D02*
X66691000Y-55910000D01*
X67960000Y-55950000D02*
X66711000Y-55950000D01*
X67960000Y-55990000D02*
X66732000Y-55990000D01*
X67960000Y-56030000D02*
X66754000Y-56030000D01*
X67960000Y-56070000D02*
X66777000Y-56070000D01*
X67960000Y-56110000D02*
X66801000Y-56110000D01*
X67960000Y-56150000D02*
X66825000Y-56150000D01*
X67960000Y-56190000D02*
X66851000Y-56190000D01*
X67960000Y-56230000D02*
X66878000Y-56230000D01*
X67960000Y-56270000D02*
X66906000Y-56270000D01*
X67960000Y-56310000D02*
X66935000Y-56310000D01*
X67960000Y-56350000D02*
X66965000Y-56350000D01*
X67960000Y-56390000D02*
X66997000Y-56390000D01*
X67960000Y-56430000D02*
X67030000Y-56430000D01*
X67960000Y-56470000D02*
X67064000Y-56470000D01*
X67960000Y-56510000D02*
X67099000Y-56510000D01*
X67960000Y-56550000D02*
X67136000Y-56550000D01*
X67960000Y-56590000D02*
X67175000Y-56590000D01*
X67960000Y-56630000D02*
X67215000Y-56630000D01*
X67960000Y-56670000D02*
X67257000Y-56670000D01*
X67960000Y-56710000D02*
X67301000Y-56710000D01*
X67960000Y-56750000D02*
X67348000Y-56750000D01*
X67960000Y-56790000D02*
X67396000Y-56790000D01*
X67960000Y-56830000D02*
X67447000Y-56830000D01*
X67960000Y-56870000D02*
X67501000Y-56870000D01*
X67960000Y-56910000D02*
X67557000Y-56910000D01*
X67960000Y-56950000D02*
X67617000Y-56950000D01*
X67960000Y-56990000D02*
X67681000Y-56990000D01*
X67960000Y-57030000D02*
X67749000Y-57030000D01*
X69283000Y-57350000D02*
X68717000Y-57350000D01*
X69517000Y-57310000D02*
X68483000Y-57310000D01*
X69677000Y-57270000D02*
X68323000Y-57270000D01*
X69805000Y-57230000D02*
X68195000Y-57230000D01*
X69914000Y-57190000D02*
X68086000Y-57190000D01*
X70011000Y-57150000D02*
X67989000Y-57150000D01*
X70098000Y-57110000D02*
X67902000Y-57110000D01*
X70177000Y-57070000D02*
X67823000Y-57070000D01*
X70251000Y-57030000D02*
X70040000Y-57030000D01*
X70319000Y-56990000D02*
X70040000Y-56990000D01*
X70383000Y-56950000D02*
X70040000Y-56950000D01*
X70443000Y-56910000D02*
X70040000Y-56910000D01*
X70475000Y-51945225D02*
X70475000Y-52445225D01*
X70499000Y-56870000D02*
X70040000Y-56870000D01*
X70553000Y-56830000D02*
X70040000Y-56830000D01*
X70604000Y-56790000D02*
X70040000Y-56790000D01*
X70652000Y-56750000D02*
X70040000Y-56750000D01*
X70699000Y-56710000D02*
X70040000Y-56710000D01*
X70725000Y-52195225D02*
X70225000Y-52195225D01*
X70743000Y-56670000D02*
X70040000Y-56670000D01*
X70785000Y-56630000D02*
X70040000Y-56630000D01*
X70825000Y-56590000D02*
X70040000Y-56590000D01*
X70864000Y-56550000D02*
X70040000Y-56550000D01*
X70901000Y-56510000D02*
X70040000Y-56510000D01*
X70936000Y-56470000D02*
X70040000Y-56470000D01*
X70970000Y-56430000D02*
X70040000Y-56430000D01*
X71003000Y-56390000D02*
X70040000Y-56390000D01*
X71035000Y-56350000D02*
X70040000Y-56350000D01*
X71065000Y-56310000D02*
X70040000Y-56310000D01*
X71094000Y-56270000D02*
X70040000Y-56270000D01*
X71122000Y-56230000D02*
X70040000Y-56230000D01*
X71149000Y-56190000D02*
X70040000Y-56190000D01*
X71175000Y-56150000D02*
X70040000Y-56150000D01*
X71199000Y-56110000D02*
X70040000Y-56110000D01*
X71223000Y-56070000D02*
X70040000Y-56070000D01*
X71246000Y-56030000D02*
X70040000Y-56030000D01*
X71268000Y-55990000D02*
X70040000Y-55990000D01*
X71289000Y-55950000D02*
X70040000Y-55950000D01*
X71309000Y-55910000D02*
X70040000Y-55910000D01*
X71329000Y-55870000D02*
X70040000Y-55870000D01*
X71347000Y-55830000D02*
X70040000Y-55830000D01*
X71365000Y-55790000D02*
X70040000Y-55790000D01*
X71382000Y-55750000D02*
X70040000Y-55750000D01*
X71398000Y-55710000D02*
X70040000Y-55710000D01*
X71413000Y-55670000D02*
X70040000Y-55670000D01*
X71428000Y-55630000D02*
X70040000Y-55630000D01*
X71442000Y-55590000D02*
X70040000Y-55590000D01*
X71455000Y-55550000D02*
X70040000Y-55550000D01*
X71467000Y-55510000D02*
X70040000Y-55510000D01*
X71479000Y-55470000D02*
X70040000Y-55470000D01*
X71490000Y-55430000D02*
X70040000Y-55430000D01*
X71501000Y-55390000D02*
X70040000Y-55390000D01*
X71510000Y-55350000D02*
X70040000Y-55350000D01*
X71519000Y-55310000D02*
X70040000Y-55310000D01*
X71528000Y-55270000D02*
X70040000Y-55270000D01*
X71536000Y-55230000D02*
X70040000Y-55230000D01*
X71543000Y-55190000D02*
X70040000Y-55190000D01*
X71549000Y-55150000D02*
X70040000Y-55150000D01*
X71555000Y-55110000D02*
X70040000Y-55110000D01*
X71560000Y-55070000D02*
X70040000Y-55070000D01*
X71565000Y-55030000D02*
X70040000Y-55030000D01*
X71569000Y-54990000D02*
X70040000Y-54990000D01*
X71572000Y-54950000D02*
X66428000Y-54950000D01*
X71575000Y-54910000D02*
X66425000Y-54910000D01*
X71577000Y-54870000D02*
X66423000Y-54870000D01*
X71579000Y-54830000D02*
X66421000Y-54830000D01*
X71580000Y-54750000D02*
X66420000Y-54750000D01*
X71580000Y-54790000D02*
X66420000Y-54790000D01*
X71620000Y-54750000D02*
G75*
G02*
X66380000Y-54750000I-2620000J0D01*
G01*
X66380000Y-54750000D02*
G75*
G02*
X71620000Y-54750000I2620000J0D01*
G01*
%TO.C,D1*%
X92700000Y-64735000D02*
X94985000Y-64735000D01*
X94985000Y-63265000D02*
X92700000Y-63265000D01*
X94985000Y-64735000D02*
X94985000Y-63265000D01*
%TO.C,R7*%
X75072742Y-42477500D02*
X75547258Y-42477500D01*
X75072742Y-43522500D02*
X75547258Y-43522500D01*
%TO.C,C1*%
X99960000Y-58784888D02*
X98431000Y-58784888D01*
X99960000Y-58824888D02*
X98435000Y-58824888D01*
X99960000Y-58864888D02*
X98440000Y-58864888D01*
X99960000Y-58904888D02*
X98445000Y-58904888D01*
X99960000Y-58944888D02*
X98451000Y-58944888D01*
X99960000Y-58984888D02*
X98457000Y-58984888D01*
X99960000Y-59024888D02*
X98464000Y-59024888D01*
X99960000Y-59064888D02*
X98472000Y-59064888D01*
X99960000Y-59104888D02*
X98481000Y-59104888D01*
X99960000Y-59144888D02*
X98490000Y-59144888D01*
X99960000Y-59184888D02*
X98499000Y-59184888D01*
X99960000Y-59224888D02*
X98510000Y-59224888D01*
X99960000Y-59264888D02*
X98521000Y-59264888D01*
X99960000Y-59304888D02*
X98533000Y-59304888D01*
X99960000Y-59344888D02*
X98545000Y-59344888D01*
X99960000Y-59384888D02*
X98558000Y-59384888D01*
X99960000Y-59424888D02*
X98572000Y-59424888D01*
X99960000Y-59464888D02*
X98587000Y-59464888D01*
X99960000Y-59504888D02*
X98602000Y-59504888D01*
X99960000Y-59544888D02*
X98618000Y-59544888D01*
X99960000Y-59584888D02*
X98635000Y-59584888D01*
X99960000Y-59624888D02*
X98653000Y-59624888D01*
X99960000Y-59664888D02*
X98671000Y-59664888D01*
X99960000Y-59704888D02*
X98691000Y-59704888D01*
X99960000Y-59744888D02*
X98711000Y-59744888D01*
X99960000Y-59784888D02*
X98732000Y-59784888D01*
X99960000Y-59824888D02*
X98754000Y-59824888D01*
X99960000Y-59864888D02*
X98777000Y-59864888D01*
X99960000Y-59904888D02*
X98801000Y-59904888D01*
X99960000Y-59944888D02*
X98825000Y-59944888D01*
X99960000Y-59984888D02*
X98851000Y-59984888D01*
X99960000Y-60024888D02*
X98878000Y-60024888D01*
X99960000Y-60064888D02*
X98906000Y-60064888D01*
X99960000Y-60104888D02*
X98935000Y-60104888D01*
X99960000Y-60144888D02*
X98965000Y-60144888D01*
X99960000Y-60184888D02*
X98997000Y-60184888D01*
X99960000Y-60224888D02*
X99030000Y-60224888D01*
X99960000Y-60264888D02*
X99064000Y-60264888D01*
X99960000Y-60304888D02*
X99099000Y-60304888D01*
X99960000Y-60344888D02*
X99136000Y-60344888D01*
X99960000Y-60384888D02*
X99175000Y-60384888D01*
X99960000Y-60424888D02*
X99215000Y-60424888D01*
X99960000Y-60464888D02*
X99257000Y-60464888D01*
X99960000Y-60504888D02*
X99301000Y-60504888D01*
X99960000Y-60544888D02*
X99348000Y-60544888D01*
X99960000Y-60584888D02*
X99396000Y-60584888D01*
X99960000Y-60624888D02*
X99447000Y-60624888D01*
X99960000Y-60664888D02*
X99501000Y-60664888D01*
X99960000Y-60704888D02*
X99557000Y-60704888D01*
X99960000Y-60744888D02*
X99617000Y-60744888D01*
X99960000Y-60784888D02*
X99681000Y-60784888D01*
X99960000Y-60824888D02*
X99749000Y-60824888D01*
X101283000Y-61144888D02*
X100717000Y-61144888D01*
X101517000Y-61104888D02*
X100483000Y-61104888D01*
X101677000Y-61064888D02*
X100323000Y-61064888D01*
X101805000Y-61024888D02*
X100195000Y-61024888D01*
X101914000Y-60984888D02*
X100086000Y-60984888D01*
X102011000Y-60944888D02*
X99989000Y-60944888D01*
X102098000Y-60904888D02*
X99902000Y-60904888D01*
X102177000Y-60864888D02*
X99823000Y-60864888D01*
X102251000Y-60824888D02*
X102040000Y-60824888D01*
X102319000Y-60784888D02*
X102040000Y-60784888D01*
X102383000Y-60744888D02*
X102040000Y-60744888D01*
X102443000Y-60704888D02*
X102040000Y-60704888D01*
X102475000Y-55740113D02*
X102475000Y-56240113D01*
X102499000Y-60664888D02*
X102040000Y-60664888D01*
X102553000Y-60624888D02*
X102040000Y-60624888D01*
X102604000Y-60584888D02*
X102040000Y-60584888D01*
X102652000Y-60544888D02*
X102040000Y-60544888D01*
X102699000Y-60504888D02*
X102040000Y-60504888D01*
X102725000Y-55990113D02*
X102225000Y-55990113D01*
X102743000Y-60464888D02*
X102040000Y-60464888D01*
X102785000Y-60424888D02*
X102040000Y-60424888D01*
X102825000Y-60384888D02*
X102040000Y-60384888D01*
X102864000Y-60344888D02*
X102040000Y-60344888D01*
X102901000Y-60304888D02*
X102040000Y-60304888D01*
X102936000Y-60264888D02*
X102040000Y-60264888D01*
X102970000Y-60224888D02*
X102040000Y-60224888D01*
X103003000Y-60184888D02*
X102040000Y-60184888D01*
X103035000Y-60144888D02*
X102040000Y-60144888D01*
X103065000Y-60104888D02*
X102040000Y-60104888D01*
X103094000Y-60064888D02*
X102040000Y-60064888D01*
X103122000Y-60024888D02*
X102040000Y-60024888D01*
X103149000Y-59984888D02*
X102040000Y-59984888D01*
X103175000Y-59944888D02*
X102040000Y-59944888D01*
X103199000Y-59904888D02*
X102040000Y-59904888D01*
X103223000Y-59864888D02*
X102040000Y-59864888D01*
X103246000Y-59824888D02*
X102040000Y-59824888D01*
X103268000Y-59784888D02*
X102040000Y-59784888D01*
X103289000Y-59744888D02*
X102040000Y-59744888D01*
X103309000Y-59704888D02*
X102040000Y-59704888D01*
X103329000Y-59664888D02*
X102040000Y-59664888D01*
X103347000Y-59624888D02*
X102040000Y-59624888D01*
X103365000Y-59584888D02*
X102040000Y-59584888D01*
X103382000Y-59544888D02*
X102040000Y-59544888D01*
X103398000Y-59504888D02*
X102040000Y-59504888D01*
X103413000Y-59464888D02*
X102040000Y-59464888D01*
X103428000Y-59424888D02*
X102040000Y-59424888D01*
X103442000Y-59384888D02*
X102040000Y-59384888D01*
X103455000Y-59344888D02*
X102040000Y-59344888D01*
X103467000Y-59304888D02*
X102040000Y-59304888D01*
X103479000Y-59264888D02*
X102040000Y-59264888D01*
X103490000Y-59224888D02*
X102040000Y-59224888D01*
X103501000Y-59184888D02*
X102040000Y-59184888D01*
X103510000Y-59144888D02*
X102040000Y-59144888D01*
X103519000Y-59104888D02*
X102040000Y-59104888D01*
X103528000Y-59064888D02*
X102040000Y-59064888D01*
X103536000Y-59024888D02*
X102040000Y-59024888D01*
X103543000Y-58984888D02*
X102040000Y-58984888D01*
X103549000Y-58944888D02*
X102040000Y-58944888D01*
X103555000Y-58904888D02*
X102040000Y-58904888D01*
X103560000Y-58864888D02*
X102040000Y-58864888D01*
X103565000Y-58824888D02*
X102040000Y-58824888D01*
X103569000Y-58784888D02*
X102040000Y-58784888D01*
X103572000Y-58744888D02*
X98428000Y-58744888D01*
X103575000Y-58704888D02*
X98425000Y-58704888D01*
X103577000Y-58664888D02*
X98423000Y-58664888D01*
X103579000Y-58624888D02*
X98421000Y-58624888D01*
X103580000Y-58544888D02*
X98420000Y-58544888D01*
X103580000Y-58584888D02*
X98420000Y-58584888D01*
X103620000Y-58544888D02*
G75*
G02*
X98380000Y-58544888I-2620000J0D01*
G01*
X98380000Y-58544888D02*
G75*
G02*
X103620000Y-58544888I2620000J0D01*
G01*
%TO.C,J3*%
X90580000Y-50080000D02*
X91960000Y-50080000D01*
X90580000Y-51460000D02*
X90580000Y-50080000D01*
X90580000Y-52730000D02*
X90580000Y-57920000D01*
X90580000Y-52730000D02*
X93230000Y-52730000D01*
X90580000Y-57920000D02*
X95880000Y-57920000D01*
X93230000Y-50080000D02*
X95880000Y-50080000D01*
X93230000Y-52730000D02*
X93230000Y-50080000D01*
X95880000Y-50080000D02*
X95880000Y-57920000D01*
%TO.C,J2*%
X65497500Y-42320000D02*
X72237500Y-42320000D01*
X65497500Y-50680000D02*
X65497500Y-42320000D01*
X67217500Y-50680000D02*
X67217500Y-42320000D01*
X70317500Y-50680000D02*
X70317500Y-42320000D01*
X71317500Y-50680000D02*
X71317500Y-42320000D01*
X72237500Y-42320000D02*
X72237500Y-48740000D01*
X72237500Y-49340000D02*
X72237500Y-50680000D01*
X72237500Y-50680000D02*
X65497500Y-50680000D01*
X72847500Y-49480000D02*
X72237500Y-49040000D01*
X72847500Y-48600000D01*
X72847500Y-49480000D01*
G36*
X72847500Y-49480000D02*
G01*
X72237500Y-49040000D01*
X72847500Y-48600000D01*
X72847500Y-49480000D01*
G37*
%TO.C,SW2*%
X77340000Y-50650000D02*
X77340000Y-49267000D01*
X77340000Y-50650000D02*
X78650000Y-50650000D01*
X77580000Y-43590000D02*
X78730000Y-43590000D01*
X77580000Y-50410000D02*
X77580000Y-43590000D01*
X77580000Y-50410000D02*
X78650000Y-50410000D01*
X79055000Y-47603333D02*
X80325000Y-47603333D01*
X80650000Y-43590000D02*
X81270000Y-43590000D01*
X80730000Y-50410000D02*
X81270000Y-50410000D01*
X81595000Y-47603333D02*
X82865000Y-47603333D01*
X83190000Y-43590000D02*
X83810000Y-43590000D01*
X83190000Y-50410000D02*
X83810000Y-50410000D01*
X84135000Y-47603333D02*
X85405000Y-47603333D01*
X85730000Y-43590000D02*
X86350000Y-43590000D01*
X85730000Y-50410000D02*
X86350000Y-50410000D01*
X86675000Y-47603333D02*
X87945000Y-47603333D01*
X88270000Y-43590000D02*
X89420000Y-43590000D01*
X88270000Y-50410000D02*
X89420000Y-50410000D01*
X89420000Y-50410000D02*
X89420000Y-43590000D01*
X79055000Y-45190000D02*
X80325000Y-45190000D01*
X80325000Y-48810000D01*
X79055000Y-48810000D01*
X79055000Y-45190000D01*
X79055000Y-47603333D02*
X80325000Y-47603333D01*
X80325000Y-48810000D01*
X79055000Y-48810000D01*
X79055000Y-47603333D01*
G36*
X79055000Y-47603333D02*
G01*
X80325000Y-47603333D01*
X80325000Y-48810000D01*
X79055000Y-48810000D01*
X79055000Y-47603333D01*
G37*
X81595000Y-45190000D02*
X82865000Y-45190000D01*
X82865000Y-48810000D01*
X81595000Y-48810000D01*
X81595000Y-45190000D01*
X81595000Y-47603333D02*
X82865000Y-47603333D01*
X82865000Y-48810000D01*
X81595000Y-48810000D01*
X81595000Y-47603333D01*
G36*
X81595000Y-47603333D02*
G01*
X82865000Y-47603333D01*
X82865000Y-48810000D01*
X81595000Y-48810000D01*
X81595000Y-47603333D01*
G37*
X84135000Y-45190000D02*
X85405000Y-45190000D01*
X85405000Y-48810000D01*
X84135000Y-48810000D01*
X84135000Y-45190000D01*
X84135000Y-47603333D02*
X85405000Y-47603333D01*
X85405000Y-48810000D01*
X84135000Y-48810000D01*
X84135000Y-47603333D01*
G36*
X84135000Y-47603333D02*
G01*
X85405000Y-47603333D01*
X85405000Y-48810000D01*
X84135000Y-48810000D01*
X84135000Y-47603333D01*
G37*
X86675000Y-45190000D02*
X87945000Y-45190000D01*
X87945000Y-48810000D01*
X86675000Y-48810000D01*
X86675000Y-45190000D01*
X86675000Y-47603333D02*
X87945000Y-47603333D01*
X87945000Y-48810000D01*
X86675000Y-48810000D01*
X86675000Y-47603333D01*
G36*
X86675000Y-47603333D02*
G01*
X87945000Y-47603333D01*
X87945000Y-48810000D01*
X86675000Y-48810000D01*
X86675000Y-47603333D01*
G37*
%TO.C,C7*%
X76490000Y-58415580D02*
X76490000Y-58134420D01*
X77510000Y-58415580D02*
X77510000Y-58134420D01*
%TO.C,R3*%
X90262742Y-60477500D02*
X90737258Y-60477500D01*
X90262742Y-61522500D02*
X90737258Y-61522500D01*
%TD*%
M02*
