%TF.GenerationSoftware,KiCad,Pcbnew,10.0.1*%
%TF.CreationDate,2026-08-08T20:04:43+02:00*%
%TF.ProjectId,CaynsLEDGateway,4361796e-734c-4454-9447-617465776179,rev?*%
%TF.SameCoordinates,Original*%
%TF.FileFunction,Paste,Top*%
%TF.FilePolarity,Positive*%
%FSLAX46Y46*%
G04 Gerber Fmt 4.6, Leading zero omitted, Abs format (unit mm)*
G04 Created by KiCad (PCBNEW 10.0.1) date 2026-08-08 20:04:43*
%MOMM*%
%LPD*%
G01*
G04 APERTURE LIST*
G04 Aperture macros list*
%AMRoundRect*
0 Rectangle with rounded corners*
0 $1 Rounding radius*
0 $2 $3 $4 $5 $6 $7 $8 $9 X,Y pos of 4 corners*
0 Add a 4 corners polygon primitive as box body*
4,1,4,$2,$3,$4,$5,$6,$7,$8,$9,$2,$3,0*
0 Add four circle primitives for the rounded corners*
1,1,$1+$1,$2,$3*
1,1,$1+$1,$4,$5*
1,1,$1+$1,$6,$7*
1,1,$1+$1,$8,$9*
0 Add four rect primitives between the rounded corners*
20,1,$1+$1,$2,$3,$4,$5,0*
20,1,$1+$1,$4,$5,$6,$7,0*
20,1,$1+$1,$6,$7,$8,$9,0*
20,1,$1+$1,$8,$9,$2,$3,0*%
G04 Aperture macros list end*
%ADD10RoundRect,0.200000X0.200000X0.275000X-0.200000X0.275000X-0.200000X-0.275000X0.200000X-0.275000X0*%
%ADD11RoundRect,0.225000X-0.250000X0.225000X-0.250000X-0.225000X0.250000X-0.225000X0.250000X0.225000X0*%
%ADD12RoundRect,0.225000X0.250000X-0.225000X0.250000X0.225000X-0.250000X0.225000X-0.250000X-0.225000X0*%
%ADD13RoundRect,0.137500X-0.600000X-0.137500X0.600000X-0.137500X0.600000X0.137500X-0.600000X0.137500X0*%
%ADD14RoundRect,0.137500X-0.137500X-0.600000X0.137500X-0.600000X0.137500X0.600000X-0.137500X0.600000X0*%
%ADD15RoundRect,0.200000X-0.275000X0.200000X-0.275000X-0.200000X0.275000X-0.200000X0.275000X0.200000X0*%
%ADD16RoundRect,0.200000X-0.200000X-0.275000X0.200000X-0.275000X0.200000X0.275000X-0.200000X0.275000X0*%
%ADD17RoundRect,0.218750X-0.218750X-0.256250X0.218750X-0.256250X0.218750X0.256250X-0.218750X0.256250X0*%
%ADD18RoundRect,0.218750X0.218750X0.256250X-0.218750X0.256250X-0.218750X-0.256250X0.218750X-0.256250X0*%
G04 APERTURE END LIST*
D10*
%TO.C,R8*%
X90825000Y-64000000D03*
X89175000Y-64000000D03*
%TD*%
D11*
%TO.C,C3*%
X78000000Y-65725000D03*
X78000000Y-67275000D03*
%TD*%
D12*
%TO.C,C5*%
X68500000Y-64450000D03*
X68500000Y-62900000D03*
%TD*%
D13*
%TO.C,IC2*%
X78837500Y-56700000D03*
X78837500Y-57500000D03*
X78837500Y-58300000D03*
X78837500Y-59100000D03*
X78837500Y-59900000D03*
X78837500Y-60700000D03*
X78837500Y-61500000D03*
X78837500Y-62300000D03*
D14*
X80200000Y-63662500D03*
X81000000Y-63662500D03*
X81800000Y-63662500D03*
X82600000Y-63662500D03*
X83400000Y-63662500D03*
X84200000Y-63662500D03*
X85000000Y-63662500D03*
X85800000Y-63662500D03*
D13*
X87162500Y-62300000D03*
X87162500Y-61500000D03*
X87162500Y-60700000D03*
X87162500Y-59900000D03*
X87162500Y-59100000D03*
X87162500Y-58300000D03*
X87162500Y-57500000D03*
X87162500Y-56700000D03*
D14*
X85800000Y-55337500D03*
X85000000Y-55337500D03*
X84200000Y-55337500D03*
X83400000Y-55337500D03*
X82600000Y-55337500D03*
X81800000Y-55337500D03*
X81000000Y-55337500D03*
X80200000Y-55337500D03*
%TD*%
D15*
%TO.C,R1*%
X76000000Y-69675000D03*
X76000000Y-71325000D03*
%TD*%
%TO.C,R2*%
X76000000Y-73675000D03*
X76000000Y-75325000D03*
%TD*%
D16*
%TO.C,R5*%
X74485000Y-46000000D03*
X76135000Y-46000000D03*
%TD*%
D17*
%TO.C,F1*%
X100212500Y-50755000D03*
X101787500Y-50755000D03*
%TD*%
D16*
%TO.C,R6*%
X74485000Y-44500000D03*
X76135000Y-44500000D03*
%TD*%
D11*
%TO.C,C9*%
X89245000Y-57730000D03*
X89245000Y-59280000D03*
%TD*%
D16*
%TO.C,R4*%
X74472042Y-47516178D03*
X76122042Y-47516178D03*
%TD*%
D12*
%TO.C,C4*%
X68500000Y-61225000D03*
X68500000Y-59675000D03*
%TD*%
D18*
%TO.C,D1*%
X94287500Y-64000000D03*
X92712500Y-64000000D03*
%TD*%
D16*
%TO.C,R7*%
X74485000Y-43000000D03*
X76135000Y-43000000D03*
%TD*%
D12*
%TO.C,C7*%
X77000000Y-59050000D03*
X77000000Y-57500000D03*
%TD*%
D16*
%TO.C,R3*%
X89675000Y-61000000D03*
X91325000Y-61000000D03*
%TD*%
M02*
