M48
; DRILL file KiCad 10.0.1 date 2026-08-08T20:04:47
; FORMAT={-:-/ absolute / metric / decimal}
; #@! TF.CreationDate,2026-08-08T20:04:47+02:00
; #@! TF.GenerationSoftware,Kicad,Pcbnew,10.0.1
; #@! TF.FileFunction,Plated,1,2,PTH
FMAT,2
METRIC
; #@! TA.AperFunction,Plated,PTH,ViaDrill
T1C0.300
; #@! TA.AperFunction,Plated,PTH,ComponentDrill
T2C0.600
; #@! TA.AperFunction,Plated,PTH,ComponentDrill
T3C0.800
; #@! TA.AperFunction,Plated,PTH,ComponentDrill
T4C1.000
; #@! TA.AperFunction,Plated,PTH,ComponentDrill
T5C1.016
; #@! TA.AperFunction,Plated,PTH,ComponentDrill
T6C1.200
%
G90
G05
T1
X75.0Y-53.0
X75.0Y-54.0
X75.0Y-55.0
X75.5Y-51.0
X76.0Y-50.5
X76.0Y-67.0
X76.0Y-68.0
X76.5Y-50.0
X81.0Y-57.5
X81.0Y-58.5
X81.0Y-59.5
X81.8Y-57.5
X81.8Y-58.5
X81.8Y-59.3
X83.0Y-57.5
X84.0Y-57.5
X85.0Y-57.5
X85.0Y-59.5
X85.0Y-60.5
X85.5Y-61.5
X89.5Y-69.0
X89.5Y-70.0
X89.5Y-71.0
X96.0Y-48.0
X97.0Y-48.0
X98.0Y-48.0
T2
X105.787Y-70.8
X106.787Y-68.2
X106.787Y-73.4
T3
X69.0Y-53.5
X69.0Y-56.0
X70.287Y-69.8
X70.287Y-72.3
X73.0Y-60.05
X73.0Y-64.95
X79.69Y-43.19
X79.69Y-50.81
X82.23Y-43.19
X82.23Y-50.81
X84.77Y-43.19
X84.77Y-50.81
X87.31Y-43.19
X87.31Y-50.81
X101.0Y-57.295
X101.0Y-59.795
T4
X82.225Y-82.0
X84.765Y-82.0
X91.96Y-51.46
X91.96Y-54.0
X91.96Y-56.54
X94.5Y-51.46
X94.5Y-54.0
X94.5Y-56.54
T5
X81.187Y-67.42
X81.187Y-69.96
X81.187Y-72.5
X81.187Y-75.04
X81.187Y-77.58
T6
X68.718Y-43.96
X68.718Y-46.5
X68.718Y-49.04
X106.218Y-51.46
X106.218Y-54.0
M30
